<svg width="24" height="24" viewBox="0 0 24 24" fill="none" xmlns="http://www.w3.org/2000/svg">
<path d="M23.7839 12.137C23.7839 5.78573 18.6351 0.636963 12.2839 0.636963C5.93264 0.636963 0.783875 5.78564 0.783875 12.137C0.783875 17.8769 4.98928 22.6346 10.487 23.4973V15.4612H7.56708V12.137H10.487V9.60337C10.487 6.72118 12.2039 5.12915 14.8307 5.12915C16.0889 5.12915 17.405 5.35376 17.405 5.35376V8.18384H15.9549C14.5262 8.18384 14.0807 9.07033 14.0807 9.97981V12.137H17.2702L16.7603 15.4612H14.0807V23.4973C19.5785 22.6346 23.7839 17.877 23.7839 12.137Z" fill="#1877F2"/>
<path d="M16.7603 15.4612L17.2702 12.137H14.0807V9.97981C14.0807 9.07024 14.5263 8.18384 15.9549 8.18384H17.405V5.35376C17.405 5.35376 16.0889 5.12915 14.8307 5.12915C12.2039 5.12915 10.487 6.72118 10.487 9.60337V12.137H7.56708V15.4612H10.487V23.4973C11.0814 23.5904 11.6822 23.6371 12.2839 23.637C12.8856 23.6371 13.4863 23.5904 14.0807 23.4973V15.4612H16.7603Z" fill="white"/>
</svg>
