<svg width="24" height="24" viewBox="0 0 24 24" fill="none" xmlns="http://www.w3.org/2000/svg">
<path d="M23.0404 12.3871C23.0404 11.4613 22.9653 10.7857 22.8027 10.0851H12.2307V14.2638H18.4362C18.3112 15.3023 17.6356 16.8662 16.1342 17.9171L16.1131 18.057L19.4558 20.6465L19.6874 20.6696C21.8143 18.7053 23.0404 15.8152 23.0404 12.3871" fill="#4285F4"/>
<path d="M12.2307 23.397C15.2709 23.397 17.8232 22.3961 19.6874 20.6696L16.1342 17.917C15.1833 18.5801 13.9072 19.043 12.2307 19.043C9.25301 19.043 6.72575 17.0788 5.82485 14.3639L5.6928 14.3751L2.21702 17.065L2.17157 17.1914C4.02322 20.8697 7.82666 23.397 12.2307 23.397Z" fill="#34A853"/>
<path d="M5.82485 14.3639C5.58714 13.6632 5.44957 12.9125 5.44957 12.1368C5.44957 11.3611 5.58714 10.6104 5.81235 9.90983L5.80605 9.76061L2.28672 7.02747L2.17158 7.08224C1.40842 8.60863 0.97052 10.3227 0.97052 12.1368C0.97052 13.951 1.40842 15.665 2.17158 17.1914L5.82485 14.3639" fill="#FBBC05"/>
<path d="M12.2307 5.23061C14.3451 5.23061 15.7713 6.14393 16.5846 6.90717L19.7624 3.80435C17.8107 1.99022 15.2709 0.876709 12.2307 0.876709C7.82666 0.876709 4.02322 3.40397 2.17157 7.08226L5.81234 9.90985C6.72575 7.19491 9.25301 5.23061 12.2307 5.23061" fill="#EB4335"/>
</svg>
